# xmcd
#
# Track frame offsets:
#	150
#	18052
#	35831
#	52790
#	67714
#	81842
#	99266
#	118550
#	133971
#	148079
#
# Disc length: 2247 seconds
#
# Revision: 0
# Processed by: cddbd v1.5.2PL0 Copyright (c) Steve Scherf et al.
# Submitted via: EasyCDDAExtractor 16.0.1.1
#
DISCID=7c08c50a
DTITLE=Amie Comeaux - Memories Left Behind
DYEAR=2006
DGENRE=Country
TTITLE0=Keep On
TTITLE1=A Rose By Any Other Name
TTITLE2=Make No Promises Tonight
TTITLE3=Ain't Heard Nothin' Yet
TTITLE4=You Could Steal Me
TTITLE5=Never Had A Girl Like Me
TTITLE6=Don't Tell Him
TTITLE7=He's Easy To Please
TTITLE8=How Hard Could It Be
TTITLE9=All By Myself
EXTD=
EXTT0=
EXTT1=
EXTT2=
EXTT3=
EXTT4=
EXTT5=
EXTT6=
EXTT7=
EXTT8=
EXTT9=
PLAYORDER=
